HIERARCHY
ROOT Hips
{
  OFFSET -31.5692 30.0904 122.763
  CHANNELS 6 Xposition Yposition Zposition Zrotation Xrotation Yrotation
  JOINT LeftUpLeg
  {
    OFFSET 8.64259 1.95398 -2.38835
    CHANNELS 3 Zrotation Xrotation Yrotation
    JOINT LeftLeg
    {
      OFFSET 43.7702 0 0
      CHANNELS 3 Zrotation Xrotation Yrotation
      JOINT LeftFoot
      {
        OFFSET 40.6238 0 0
        CHANNELS 3 Zrotation Xrotation Yrotation
        JOINT LeftToeBase
        {
          OFFSET 12.7242 0 0
          CHANNELS 3 Zrotation Xrotation Yrotation
          End Site
          {
            OFFSET 0 0 0
          }
        }
      }
    }
  }
  JOINT RightUpLeg
  {
    OFFSET -8.2249 1.95398 -2.59336
    CHANNELS 3 Zrotation Xrotation Yrotation
    JOINT RightLeg
    {
      OFFSET 43.5653 0 0
      CHANNELS 3 Zrotation Xrotation Yrotation
      JOINT RightFoot
      {
        OFFSET 40.6238 0 0
        CHANNELS 3 Zrotation Xrotation Yrotation
        JOINT RightToeBase
        {
          OFFSET 12.7242 0 0
          CHANNELS 3 Zrotation Xrotation Yrotation
          End Site
          {
            OFFSET 0 0 0
          }
        }
      }
    }
  }
  JOINT Spine
  {
    OFFSET 0.165834 0.87714 6.61349
    CHANNELS 3 Zrotation Xrotation Yrotation
    JOINT Spine1
    {
      OFFSET 7.38963 1.71661e-005 0
      CHANNELS 3 Zrotation Xrotation Yrotation
      JOINT Spine2
      {
        OFFSET 11.9445 1.14441e-005 0
        CHANNELS 3 Zrotation Xrotation Yrotation
        JOINT Spine3
        {
          OFFSET 14.7254 4.19617e-005 0
          CHANNELS 3 Zrotation Xrotation Yrotation
          JOINT Spine4
          {
            OFFSET 10.9679 0 0
            CHANNELS 3 Zrotation Xrotation Yrotation
            JOINT RightShoulder
            {
              OFFSET 2.46616 -1.6653 3.69651
              CHANNELS 3 Zrotation Xrotation Yrotation
              JOINT RightArm
              {
                OFFSET 13.0012 0 0
                CHANNELS 3 Zrotation Xrotation Yrotation
                JOINT RightForeArm
                {
                  OFFSET 28.7848 1.62311e-005 0
                  CHANNELS 3 Zrotation Xrotation Yrotation
                  JOINT RightHand
                  {
                    OFFSET 26.5688 1.62095e-005 0
                    CHANNELS 3 Zrotation Xrotation Yrotation
                    End Site
                    {
                      OFFSET 0 0 0
                    }
                  }
                }
              }
            }
            JOINT LeftShoulder
            {
              OFFSET 2.38034 -1.29275 -3.7523
              CHANNELS 3 Zrotation Xrotation Yrotation
              JOINT LeftArm
              {
                OFFSET 16.3182 6.07031e-005 0
                CHANNELS 3 Zrotation Xrotation Yrotation
                JOINT LeftForeArm
                {
                  OFFSET 27.0901 0 0
                  CHANNELS 3 Zrotation Xrotation Yrotation
                  JOINT LeftHand
                  {
                    OFFSET 24.5451 1.51738e-005 0
                    CHANNELS 3 Zrotation Xrotation Yrotation
                    End Site
                    {
                      OFFSET 0 0 0
                    }
                  }
                }
              }
            }
            JOINT Neck
            {
              OFFSET 5.0226 -0.0266342 0
              CHANNELS 3 Zrotation Xrotation Yrotation
              JOINT Head
              {
                OFFSET 6.69364 2.86102e-005 0
                CHANNELS 3 Zrotation Xrotation Yrotation
                End Site
                {
                  OFFSET 0 0 0
                }
              }
            }
          }
        }
      }
    }
  }
}
MOTION
Frames:	13
Frame Time:	0.0416667
-273.047 99.9202 -256.812 -100.481 -57.0991 -98.7626 -173.188 -4.32913 90.6513 -15.2332 8.66365 1.48991 69.8445 5.77401 -0.927304 29.0201 1.22559 -3.45058 172.053 -4.02081 88.8095 -13.7365 -12.7518 -0.914616 67.3323 -5.21428 -0.239646 24.6174 0.448687 6.20972 0.380579 7.86008 -90.4395 11.1552 0.553356 -0.92873 -0.515978 0.51196 -0.952193 -23.0503 0.8069 -0.719496 -3.03768 0.806899 -0.719504 90.0656 -30.2554 -106.532 38.8288 -4.92651 -3.0937 4.43086 -20.0214 -15.1159 -20.9752 1.4856 -18.4237 -88.2191 -52.654 81.8736 -24.2767 8.00682 -7.33911 -3.44999 13.476 -0.550658 8.97669 -1.68383 -22.5468 1.4392 11.1099 -1.59551 -7.87567 11.0643 4.58625 
-273.19 99.7622 -256.871 -99.2285 -57.137 -97.5904 -172.744 -2.80139 91.0968 -16.944 8.90522 0.971082 70.7432 6.37538 -1.00889 29.6115 1.46373 -3.39558 172.349 -2.97627 89.1259 -14.5143 -12.56 -0.89543 67.485 -5.38591 -0.425635 25.2204 0.19898 6.23095 0.384535 7.8146 -90.5095 11.2461 0.528261 -1.0665 -0.425227 0.480808 -1.08873 -22.9588 0.824353 -0.858454 -2.94613 0.824356 -0.858462 90.1076 -30.0188 -106.538 38.5027 -4.87417 -3.48717 4.4205 -20.1284 -15.0129 -22.2845 1.40601 -17.1244 -88.5736 -53.6798 81.5415 -23.4263 8.03655 -7.77679 -3.15122 14.7848 -1.07951 10.9529 -1.82936 -20.9811 1.64616 11.2152 -0.86562 -7.67172 11.0683 4.4729 
-273.145 99.5635 -256.47 -98.8191 -57.1146 -97.4013 -173.078 -2.21158 90.6463 -18.2054 8.3907 1.03544 71.2279 6.94889 -0.67383 30.8397 1.82709 -2.85041 172.278 -1.97971 88.8684 -16.3577 -12.5297 -1.01042 68.1889 -5.65412 -0.173635 25.9525 -0.0489807 6.01665 0.362398 7.82712 -90.5124 11.2207 0.483009 -1.06743 -0.450579 0.435555 -1.08766 -22.9839 0.78147 -0.872942 -2.97125 0.78148 -0.872937 90.2429 -29.8625 -106.33 38.4604 -5.13983 -3.81421 4.35874 -19.8818 -15.4521 -23.0112 1.28186 -15.9424 -88.4867 -53.4691 81.6291 -23.5446 7.71578 -7.94535 -2.82131 16.1354 -1.27409 11.0821 -2.00065 -22.2506 2.22977 11.1981 -0.928744 -8.16219 11.0391 4.52556 
-272.709 99.145 -256.118 -98.1575 -57.944 -97.1561 -173.302 -0.184938 89.9862 -21.4685 8.15861 0.716471 72.5661 8.34059 -0.754602 31.7334 2.22861 -2.90181 171.523 -0.0538609 87.8556 -19.6037 -13.0226 -0.652022 69.7161 -6.25038 -0.544582 26.0109 0.0076645 5.65554 0.351494 7.88239 -90.5979 11.1097 0.422164 -1.23081 -0.561746 0.367571 -1.2482 -23.0938 0.772524 -1.04707 -3.08119 0.772536 -1.04707 91.281 -28.7516 -104.648 39.0515 -4.92369 -4.33627 3.64904 -20.9602 -16.0388 -22.7321 0.940953 -14.39 -89.3192 -53.7367 80.48 -23.5244 7.97104 -9.13502 -2.74814 17.0736 -2.61165 10.832 -1.78363 -21.0625 3.32034 10.8368 -0.23437 -8.17625 10.5607 4.44488 
-272.026 98.5295 -256.024 -98.0538 -58.3735 -96.2658 -172.381 3.48948 90.7474 -27.8079 9.9144 0.0434203 73.5357 9.53103 1.49176 32.588 2.57077 -2.81065 171.462 1.75909 88.2576 -22.8249 -12.3313 -0.272509 70.733 -6.55569 -0.358966 27.1864 -0.506391 5.81412 0.331745 7.94973 -90.8164 10.9736 0.282452 -1.65111 -0.69834 0.209536 -1.66195 -23.2266 0.765554 -1.48995 -3.21393 0.765576 -1.48995 91.3653 -28.0871 -104.72 38.649 -4.44913 -3.80793 2.8246 -22.4068 -16.9142 -22.85 0.796573 -13.8797 -89.6007 -54.2377 80.1716 -23.5024 9.00497 -9.25293 -1.59277 14.8773 -5.0635 12.4738 -1.87693 -19.4845 3.97307 10.6357 0.420218 -7.80966 10.2489 4.62433 
-270.949 97.9619 -255.908 -96.3155 -58.0049 -94.4076 -170.946 8.95255 90.8252 -35.5298 6.70955 -1.31054 73.6756 8.7599 0.549111 31.7036 2.39388 -3.52246 171.176 4.91851 87.8489 -26.3436 -13.8785 -0.022568 71.0067 -6.75576 -0.435007 28.6586 -0.984851 5.21301 0.337334 7.98297 -90.924 10.9066 0.244331 -1.86107 -0.765693 0.162212 -1.87002 -23.2918 0.792297 -1.70169 -3.2791 0.792302 -1.70168 91.7119 -27.7069 -104.142 38.2466 -4.49886 -4.03681 2.68028 -20.4842 -17.8366 -22.9934 1.3789 -16.6823 -89.438 -54.1134 80.3806 -23.3054 8.12789 -9.10587 -1.10505 20.608 -5.15274 12.4058 -2.06318 -21.3432 5.7375 10.7496 -0.176134 -8.42036 10.3938 5.26641 
-269.665 97.1926 -255.647 -94.6748 -57.5802 -92.9561 -168.592 14.5384 90.9589 -43.0438 2.85724 -3.24479 73.8477 8.32155 1.08926 32.0552 2.10636 -1.96223 169.971 8.47505 86.6704 -30.4181 -15.8725 0.655624 71.99 -7.59722 -0.544941 29.4923 -1.29932 5.04382 0.28857 8.0614 -91.069 10.7469 0.0817732 -2.13312 -0.925835 -0.0121759 -2.13466 -23.4482 0.718959 -2.01002 -3.43553 0.718959 -2.01004 91.9436 -27.305 -103.803 37.1491 -4.59623 -4.26172 2.04835 -20.6155 -19.5089 -23.7275 1.20871 -15.375 -90.094 -54.0591 79.4316 -23.6807 7.6948 -8.30665 -0.422367 22.8668 -6.09223 14.2924 -2.31026 -20.8429 8.26503 11.0224 0.0514478 -9.92343 10.5259 5.18889 
-268.205 96.1034 -255.167 -94.3357 -57.132 -93.0534 -166.006 19.5077 91.3484 -50.5735 0.5496 -4.5754 74.133 7.92696 0.92193 31.2458 1.12643 0.0825877 169.208 11.7924 85.1584 -35.6021 -17.7059 0.538224 73.354 -8.63198 -0.970558 31.0919 -1.85042 4.45879 0.0847879 8.26284 -91.1109 10.3397 -0.339415 -2.17733 -1.333 -0.434919 -2.1603 -23.8536 0.330478 -2.17871 -3.84098 0.330475 -2.17871 92.1537 -27.2749 -103.376 36.1724 -4.05634 -4.96438 0.640884 -21.5615 -21.3277 -24.7043 1.10217 -14.6424 -89.8994 -52.531 79.4046 -24.4477 8.92468 -7.66574 0.620644 23.7814 -6.44831 15.4706 -2.64787 -21.4671 10.8361 11.822 -0.0462261 -10.8921 11.2088 5.95701 
-266.615 94.8376 -254.602 -93.0499 -56.7134 -92.5713 -163.725 25.2613 92.889 -57.4557 -1.98938 -4.98025 74.9354 7.28432 -1.31529 30.4619 0.00473886 2.49986 168.398 15.8709 83.4671 -40.8385 -19.1727 0.359795 74.5011 -9.51095 -0.675131 32.4039 -2.33243 4.0643 -0.132895 8.38042 -91.167 10.0996 -0.796444 -2.2502 -1.57294 -0.894676 -2.21299 -24.0926 -0.0835609 -2.38545 -4.07991 -0.0835643 -2.38545 92.0838 -27.2451 -103.533 35.0566 -2.96984 -4.66936 -1.1989 -21.8313 -23.8128 -25.0349 1.27662 -15.5029 -90.286 -52.6544 78.8683 -22.157 10.1796 -7.77253 -0.341219 24.7286 -6.07423 17.2527 -2.73024 -20.0954 11.772 12.9612 0.0870122 -10.7886 12.1521 8.0692 
-265 93.0435 -253.605 -92.6055 -55.4651 -93.3087 -162.249 29.5376 96.1253 -62.0465 -3.74688 -4.56693 76.7072 7.88926 -2.29122 30.0773 0.629448 -0.117826 167.849 20.2123 81.1383 -47.5053 -21.7527 -0.477044 76.4948 -11.2442 -1.63574 32.1531 -2.42797 5.31677 -0.268512 8.53548 -91.1502 9.78759 -1.05617 -2.19735 -1.88468 -1.15183 -2.14877 -24.4056 -0.347155 -2.41304 -4.39293 -0.347158 -2.41305 92.1658 -27.2121 -103.372 34.4827 -1.64548 -4.22952 -2.16454 -18.7446 -25.9151 -25.7839 1.88722 -17.55 -90.6132 -50.9942 78.0344 -23.2772 8.51024 -7.48107 -0.590853 27.7513 -4.58561 22.1776 -3.07068 -17.4835 12.0841 13.9644 0.710647 -10.5645 12.8982 9.68048 
-263.085 91.0502 -251.939 -91.6971 -52.9009 -94.2198 -161.462 32.4587 100.364 -62.9061 -2.29391 -4.25549 74.9304 7.57403 1.42999 32.1482 2.72155 -3.98534 167.988 25.0997 77.7188 -54.3155 -25.395 -2.09679 78.1033 -12.7807 -1.90463 33.3032 -2.83839 4.95054 -0.217027 8.61623 -91.1552 9.62701 -0.954222 -2.21679 -2.04539 -1.05086 -2.17267 -24.5658 -0.244106 -2.40098 -4.55311 -0.244091 -2.40098 93.1391 -26.4884 -101.565 33.8782 -0.964008 -3.13359 -3.51258 -18.3353 -28.7243 -28.9733 2.02275 -16.5823 -91.3185 -51.929 77.2084 -21.9651 7.28077 -7.12507 -0.499043 27.809 -3.4771 23.6191 -3.22709 -17.1282 12.4323 15.0907 2.57236 -11.2656 13.4179 10.6878 
-261.101 88.5828 -250.545 -87.9744 -50.2308 -92.2945 -161.209 36.6816 106.555 -61.69 -3.07961 -4.21167 73.1823 6.34153 1.54741 29.9057 1.63644 -3.55273 170.192 31.6922 75.5549 -60.954 -26.5664 -3.82439 79.4297 -13.9026 -1.6465 34.887 -3.41745 4.46321 -0.216517 8.53918 -91.1111 9.7821 -0.934728 -2.12994 -1.89017 -1.02754 -2.08676 -24.4118 -0.251567 -2.31229 -4.39919 -0.251552 -2.3123 92.612 -27.32 -102.4 31.6297 -0.0020487 -1.7749 -4.21457 -17.5112 -30.3032 -28.0471 2.27032 -17.9492 -90.6918 -51.5734 78.0453 -21.3163 4.69402 -5.77315 0.596375 26.0632 -3.22773 24.6212 -3.63783 -18.0325 13.8194 16.9836 4.36432 -11.9425 14.7037 10.7525 
-258.247 85.948 -249.145 -83.8 -51.655 -91.2829 -165.575 40.2019 111.25 -56.3399 -3.78613 -2.6493 68.3827 3.68179 1.52338 28.657 1.22584 -3.93871 171.802 38.2575 70.5567 -66.6091 -26.5884 -4.94225 80.7923 -14.5593 -1.26873 37.1778 -4.2196 3.21357 -0.692629 8.4232 -90.8661 10.013 -1.77416 -1.57265 -1.65755 -1.84166 -1.49305 -24.1904 -1.21961 -2.03305 -4.17771 -1.21961 -2.03306 91.3748 -29.8168 -104.087 27.1801 1.57145 -0.242471 -4.21129 -15.3991 -30.9076 -23.9351 2.41447 -20.5936 -88.419 -50.2503 81.1423 -20.4081 -0.285609 -3.45673 3.90549 24.4459 -6.01028 24.4862 -4.29111 -20.6255 18.4041 18.9479 3.9004 -13.9023 16.3288 10.7525 
